<svg width="16" height="16" viewBox="0 0 16 16" fill="none" xmlns="http://www.w3.org/2000/svg">
<g clip-path="url(#clip0_18_3678)">
<path d="M2.5 8C3.32843 8 4 7.2165 4 6.25C4 5.2835 3.32843 4.5 2.5 4.5C1.67157 4.5 1 5.2835 1 6.25C1 7.2165 1.67157 8 2.5 8Z" stroke="#727272"/>
<path d="M13.5 8C14.3284 8 15 7.2165 15 6.25C15 5.2835 14.3284 4.5 13.5 4.5C12.6716 4.5 12 5.2835 12 6.25C12 7.2165 12.6716 8 13.5 8Z" stroke="#727272"/>
<path d="M5.5 4C6.32843 4 7 3.2165 7 2.25C7 1.2835 6.32843 0.5 5.5 0.5C4.67157 0.5 4 1.2835 4 2.25C4 3.2165 4.67157 4 5.5 4Z" stroke="#727272"/>
<path d="M10.5 4C11.3284 4 12 3.2165 12 2.25C12 1.2835 11.3284 0.5 10.5 0.5C9.67157 0.5 9 1.2835 9 2.25C9 3.2165 9.67157 4 10.5 4Z" stroke="#727272"/>
<path d="M6.34121 8.4627C7.13394 7.28579 8.86606 7.28579 9.65879 8.46269L11.9624 11.8827C12.8165 13.1507 11.9882 14.8381 10.5182 14.9891C10.3764 15.0037 10.2333 14.9848 10.094 14.9545L8.84846 14.6842C8.28934 14.5628 7.71069 14.5628 7.15157 14.6842L5.90603 14.9545C5.76665 14.9848 5.62364 15.0037 5.48176 14.9891C4.01181 14.8381 3.1835 13.1507 4.03757 11.8827L6.34121 8.4627Z" stroke="#727272"/>
</g>
<defs>
<clipPath id="clip0_18_3678">
<rect width="16" height="16" fill="white"/>
</clipPath>
</defs>
</svg>
