<svg width="16" height="16" viewBox="0 0 16 16" fill="none" xmlns="http://www.w3.org/2000/svg">
<g clip-path="url(#clip0_18_3648)">
<path d="M6.10307 5.75C6.10307 6.02614 5.87921 6.25 5.60307 6.25C5.32693 6.25 5.10307 6.02614 5.10307 5.75C5.10307 5.47386 5.32693 5.25 5.60307 5.25C5.87921 5.25 6.10307 5.47386 6.10307 5.75Z" stroke="#727272"/>
<path d="M11.1031 5.75C11.1031 6.02614 10.8792 6.25 10.6031 6.25C10.3269 6.25 10.1031 6.02614 10.1031 5.75C10.1031 5.47386 10.3269 5.25 10.6031 5.25C10.8792 5.25 11.1031 5.47386 11.1031 5.75Z" stroke="#727272"/>
<path d="M1.56277 6.15298C1.86949 3.08577 4.45048 0.75 7.53299 0.75H8.67314C11.7557 0.75 14.3366 3.08577 14.6434 6.15298L15.452 14.2394C15.5153 14.8723 14.8372 15.3124 14.285 14.9968L14.1105 14.8971C12.8564 14.1805 11.327 14.138 10.0351 14.784C8.81885 15.3921 7.38728 15.3921 6.17104 14.784C4.87909 14.138 3.34977 14.1805 2.09563 14.8971L1.92113 14.9968C1.3689 15.3124 0.690834 14.8723 0.754122 14.2395L1.56277 6.15298Z" stroke="#727272"/>
</g>
<defs>
<clipPath id="clip0_18_3648">
<rect width="16" height="16" fill="white"/>
</clipPath>
</defs>
</svg>
